<svg width="24" height="24" viewBox="0 0 24 24" fill="none" xmlns="http://www.w3.org/2000/svg">
<path d="M7.63604 2.39999C4.31176 2.39999 1.6001 5.11166 1.6001 8.43593C1.6001 11.4265 3.92054 14.4678 6.12822 16.8953C8.33591 19.3228 10.5376 21.0953 10.5376 21.0953C10.5443 21.1006 10.5511 21.1058 10.5579 21.1109C10.9143 21.3801 11.3615 21.5551 11.847 21.5875C11.8975 21.5966 11.9488 21.6007 12.0001 21.6C12.0509 21.6006 12.1017 21.5965 12.1517 21.5875C12.1543 21.587 12.1569 21.5865 12.1595 21.5859C12.6424 21.5524 13.0874 21.3789 13.4423 21.1109C13.4491 21.1058 13.4559 21.1006 13.4626 21.0953C13.4626 21.0953 15.6643 19.3228 17.872 16.8953C20.0797 14.4678 22.4001 11.4265 22.4001 8.43593C22.4001 5.11166 19.6884 2.39999 16.3642 2.39999C14.2729 2.39999 12.792 3.55083 12.0001 4.36562C11.2081 3.55083 9.72726 2.39999 7.63604 2.39999ZM7.63604 3.99999C9.821 3.99999 11.1504 5.79395 11.2829 5.97968C11.3506 6.11005 11.4529 6.21925 11.5786 6.29532C11.7043 6.37139 11.8485 6.41139 11.9954 6.41093C12.0017 6.411 12.0079 6.411 12.0142 6.41093C12.0204 6.41048 12.0267 6.40996 12.0329 6.40937C12.0533 6.40858 12.0736 6.40702 12.0938 6.40468C12.2239 6.39042 12.3484 6.3445 12.4565 6.27095C12.5647 6.1974 12.6531 6.09847 12.7142 5.98281C12.84 5.806 14.173 3.99999 16.3642 3.99999C18.8239 3.99999 20.8001 5.9762 20.8001 8.43593C20.8001 10.5181 18.7999 13.4961 16.6876 15.8187C14.5825 18.1335 12.4863 19.8244 12.472 19.8359C12.3315 19.9405 12.1754 20 12.0001 20C11.8248 20 11.6687 19.9405 11.5282 19.8359C11.5139 19.8244 9.41773 18.1335 7.3126 15.8187C5.20028 13.4961 3.2001 10.5181 3.2001 8.43593C3.2001 5.9762 5.17631 3.99999 7.63604 3.99999Z" fill="#111111"/>
</svg>
